<svg xmlns="http://www.w3.org/2000/svg" viewBox="0 0 417.51 79.89"><defs><style>.cls-1{fill:#13022c;}</style></defs><title>wordmark_navy</title><g id="Layer_2" data-name="Layer 2"><g id="Layer_1-2" data-name="Layer 1"><path class="cls-1" d="M48.79,46h-33V78.75H0V0H54.31V12.17H15.79V33.86h33Z"/><path class="cls-1" d="M54.51,49q0-13.1,7.3-21.45T82,19.15q13,0,20.34,8.33T109.74,49v1.14q0,13.19-7.33,21.5t-20.26,8.3q-13,0-20.31-8.3t-7.33-21.5Zm15.74,1.11q0,8,2.81,12.83t9.09,4.83q6.12,0,8.95-4.86t2.84-12.8V48.93q0-7.78-2.86-12.7t-9-4.91q-6.11,0-9,4.94T70.25,48.93Z"/><path class="cls-1" d="M131.14,20.23l.71,8.38a21.33,21.33,0,0,1,7.19-7,18.66,18.66,0,0,1,9.57-2.49q8.88,0,13.85,5.57t5,17.47V78.75H151.59V42.16q0-5.91-2.38-8.37T142,31.32a12.14,12.14,0,0,0-5.62,1.27,11.44,11.44,0,0,0-4.16,3.61V78.75h-15.8V20.23Z"/><path class="cls-1" d="M195.23,5.9V20.23h9.84V31.32h-9.84v29.8c0,2.27.47,3.9,1.41,4.87a5,5,0,0,0,3.78,1.46,14.69,14.69,0,0,0,2.14-.13c.59-.1,1.29-.25,2.08-.46L206,78.27a31.61,31.61,0,0,1-4.65,1.21,28.05,28.05,0,0,1-4.92.41q-8.16,0-12.58-4.49t-4.4-14.23V31.32h-8.55V20.23h8.55V5.9Z"/><path class="cls-1" d="M250,0q13.51,0,21.34,7t7.81,18.2q0,11.31-7.81,18.18T250,50.19H236.71V67.66l8.44,1.63v9.46H212.53V69.29l8.39-1.63V11.14l-8.39-1.62V0H250ZM236.71,38H250q6.6,0,10-3.59a12.87,12.87,0,0,0,3.38-9.17A13.45,13.45,0,0,0,260,15.87q-3.39-3.69-10-3.7H236.71Z"/><path class="cls-1" d="M317.42,78.75a27.68,27.68,0,0,1-1.14-3,24.3,24.3,0,0,1-.76-3.11,21.62,21.62,0,0,1-6.84,5.25,20.53,20.53,0,0,1-9.22,2q-8.59,0-13.66-4.68t-5.06-12.74a14.49,14.49,0,0,1,6.6-12.71q6.6-4.48,19.37-4.49h8.06V39.54A8.61,8.61,0,0,0,312.33,33q-2.43-2.33-7.19-2.33a17.11,17.11,0,0,0-4.81.62,12.55,12.55,0,0,0-3.41,1.49l-1,6.27H284l.05-13A44.22,44.22,0,0,1,294,21.15a36.1,36.1,0,0,1,12.2-2q10.86,0,17.65,5.33t6.8,15.17V63.83c0,.9,0,1.75,0,2.54a18.12,18.12,0,0,0,.19,2.27l4.81.65v9.46ZM303.73,68.21a13.75,13.75,0,0,0,6.49-1.54,12.55,12.55,0,0,0,4.55-3.87V53.87h-8.06q-5,0-7.63,2.36a7.35,7.35,0,0,0-2.6,5.65,5.85,5.85,0,0,0,1.92,4.65A7.85,7.85,0,0,0,303.73,68.21Z"/><polygon class="cls-1" points="341.07 69.29 348.7 67.67 348.7 31.37 340.25 29.75 340.25 20.23 364.49 20.23 364.49 67.67 372.06 69.29 372.06 78.75 341.07 78.75 341.07 69.29"/><rect class="cls-1" x="348.7" width="15.79" height="11.85"/><path class="cls-1" d="M376.78,69.29l7.57-1.63V31.37L376,29.75V20.23h23.09l.71,8.55a18.4,18.4,0,0,1,5.3-7.09,11.81,11.81,0,0,1,7.52-2.54,18.79,18.79,0,0,1,2.62.19,15.48,15.48,0,0,1,2.3.46l-1.68,14.39L409.34,34a11,11,0,0,0-5.73,1.36,8.7,8.7,0,0,0-3.46,3.83V67.66l7.57,1.63v9.46H376.78Z"/></g></g></svg>