<svg xmlns="http://www.w3.org/2000/svg" viewBox="0 0 328.65 275"><defs><style>.cls-1{fill:#ffe800;}.cls-2{fill:none;}</style></defs><title>symbol_yellow</title><g id="Layer_2" data-name="Layer 2"><g id="Layer_1-2" data-name="Layer 1"><path class="cls-1" d="M312.25,38.35c-1.19,10.31-10,20.21-26.45,29.73l-24.26,14,22.64,13.16,9,5.24,18.33-7.18.85.49h0V35.92h0C312.38,36.73,312.34,37.54,312.25,38.35Z"/><polygon class="cls-1" points="313.26 112.13 269.15 137.6 269.15 137.6 269.15 137.6 252.05 127.66 264.4 117.13 245.4 106.09 212.64 87.05 212.65 87.05 161.93 57.58 143.71 64.7 129.73 56.57 126.49 54.69 126.49 84.27 79 111.69 58.93 123.28 58.94 123.29 93.25 143.23 126.49 124.04 126.49 123.85 150.76 110.03 150.76 110.03 150.76 110.03 155.53 112.8 161.93 116.52 176.22 124.82 176.22 124.82 176.22 124.82 118.72 158.02 176.19 191.42 142.72 210.75 118.72 196.8 118.72 196.8 70.58 168.82 0 127.81 0 192.06 118.72 261.05 142.72 275 176.19 255.68 176.22 130.14 252.05 174.2 252.05 191.91 269.15 201.85 328.65 167.5 328.65 103.25 313.26 112.13"/><path class="cls-1" d="M263.73,55.25c8-4.63,11.94-9.38,11.69-14.27S271.73,31.66,265,27.72a47.92,47.92,0,0,0-23.19-6.29A46.61,46.61,0,0,0,216.87,28L192.61,42l46.85,27.23Z"/><rect class="cls-2" width="328.65" height="275"/></g></g></svg>